<svg width="278" height="119" viewBox="0 0 278 119" fill="none" xmlns="http://www.w3.org/2000/svg">
<path d="M31.346 90.535C25.592 90.535 20.3403 89.4847 15.591 87.384C10.933 85.3747 7.46233 82.6803 5.179 79.301C3.62633 76.9263 2.48467 74.5517 1.754 72.177C1.02333 69.711 0.658 67.1993 0.658 64.642C0.658 60.806 1.29733 57.0613 2.576 53.408C3.85467 49.6633 5.49867 46.1013 7.508 42.722C9.60867 39.2513 11.7093 36.146 13.81 33.406C17.7373 28.2913 22.3953 23.4963 27.784 19.021C33.1727 14.5457 38.8353 10.7097 44.772 7.513C50.7087 4.225 56.4627 2.033 62.034 0.936995C63.5867 0.571661 65.4133 0.388994 67.514 0.388994C71.7153 0.388994 75.6427 1.43933 79.296 3.53999C82.9493 5.64066 85.1413 8.97433 85.872 13.541C85.872 14.911 85.2783 16.0527 84.091 16.966C82.995 17.8793 81.9447 18.336 80.94 18.336C79.4787 18.336 78.748 17.5597 78.748 16.007V15.87C78.748 13.7693 77.4693 11.8057 74.912 9.97899C72.446 8.061 69.5233 7.102 66.144 7.102C65.6873 7.102 65.185 7.14766 64.637 7.239C64.1803 7.239 63.7237 7.28466 63.267 7.37599C58.5177 8.28933 53.3573 10.253 47.786 13.267C42.306 16.281 37.0087 19.8887 31.894 24.09C26.8707 28.2913 22.578 32.721 19.016 37.379C15.9107 41.3977 13.2163 45.9187 10.933 50.942C8.64967 55.874 7.508 60.6233 7.508 65.19C7.508 69.2087 8.51267 72.6793 10.522 75.602C11.9833 77.6113 14.6777 79.5293 18.605 81.356C22.5323 83.0913 26.962 83.959 31.894 83.959C34.2687 83.959 36.689 83.685 39.155 83.137C44.8177 81.767 49.2473 80.2143 52.444 78.479C55.732 76.6523 58.2893 74.8257 60.116 72.999C62.034 71.1723 63.7237 69.6653 65.185 68.478C65.733 68.204 66.1897 68.067 66.555 68.067C67.651 68.067 68.199 68.889 68.199 70.533C68.199 71.4463 67.9707 72.4053 67.514 73.41C67.1487 74.4147 66.5093 75.191 65.596 75.739C64.9567 76.1043 63.8607 77.2003 62.308 79.027C60.7553 80.7623 58.2893 82.6347 54.91 84.644C51.5307 86.7447 46.7813 88.3887 40.662 89.576C39.1093 89.9413 37.5567 90.1697 36.004 90.261C34.4513 90.4437 32.8987 90.535 31.346 90.535ZM84.9365 80.808C84.1145 80.808 83.3382 80.4883 82.6075 79.849C81.9682 79.1183 81.6485 77.931 81.6485 76.287C81.6485 75.9217 81.6485 75.5563 81.6485 75.191C81.7399 74.7343 81.8312 74.2777 81.9225 73.821C82.7445 69.8023 83.7949 65.5553 85.0735 61.08C86.4435 56.6047 87.8135 52.4033 89.1835 48.476C90.5535 44.4573 91.5582 41.3063 92.1975 39.023C92.6542 37.5617 93.2935 36.5113 94.1155 35.872C95.0289 35.2327 95.9422 34.913 96.8555 34.913C97.8602 34.913 98.6822 35.2327 99.3215 35.872C100.052 36.42 100.418 37.1963 100.418 38.201C100.418 39.023 100.144 39.9363 99.5955 40.941C99.0475 41.9457 98.3625 43.544 97.5405 45.736C96.8099 47.928 96.0792 50.12 95.3485 52.312C94.6179 54.504 93.9785 56.148 93.4305 57.244C96.6272 54.1387 99.5042 51.5813 102.062 49.572C104.619 47.5627 107.998 45.599 112.2 43.681C114.026 42.7677 116.401 42.311 119.324 42.311C121.424 42.311 123.525 42.722 125.626 43.544C127.726 44.366 129.462 45.8273 130.832 47.928C132.202 50.0287 132.887 52.997 132.887 56.833C132.887 58.2943 132.065 59.025 130.421 59.025C129.781 59.025 129.096 58.751 128.366 58.203C127.726 57.655 127.178 56.7417 126.722 55.463C126.082 53.3623 125.078 51.7183 123.708 50.531C122.429 49.2523 120.739 48.613 118.639 48.613C117.36 48.613 115.899 48.887 114.255 49.435C112.245 50.0743 109.734 51.3073 106.72 53.134C103.706 54.8693 100.6 57.0613 97.4035 59.71C94.2982 62.3587 91.4212 65.3727 88.7725 68.752C88.7725 69.3913 88.6355 70.122 88.3615 70.944C88.1789 71.766 88.0875 72.6793 88.0875 73.684C88.0875 73.8667 88.1789 74.3233 88.3615 75.054C88.5442 75.7847 88.6355 76.5153 88.6355 77.246C88.6355 78.2507 88.2245 79.1183 87.4025 79.849C86.6719 80.4883 85.8499 80.808 84.9365 80.808ZM165.825 30.529C165.369 31.077 164.775 31.1227 164.044 30.666C163.405 30.2093 162.857 29.5243 162.4 28.611C161.944 27.6063 161.807 26.6473 161.989 25.734H162.126C162.492 24.364 162.948 23.2223 163.496 22.309C164.044 21.3957 164.775 20.4823 165.688 19.569C166.236 19.021 166.967 18.747 167.88 18.747C168.702 18.747 169.433 19.021 170.072 19.569C170.803 20.0257 171.168 20.6193 171.168 21.35C171.168 21.7153 171.031 22.1263 170.757 22.583C170.483 22.9483 169.935 23.9073 169.113 25.46C168.383 27.0127 167.287 28.7023 165.825 30.529ZM148.563 81.082C147.102 81.082 145.641 80.534 144.179 79.438C142.809 78.2507 142.261 76.3783 142.535 73.821C142.901 70.259 143.403 67.245 144.042 64.779C144.682 62.313 145.412 60.0753 146.234 58.066C147.056 55.9653 147.924 53.7277 148.837 51.353C149.842 48.9783 150.847 46.1013 151.851 42.722C152.399 41.1693 153.541 40.393 155.276 40.393C156.464 40.393 157.514 40.7583 158.427 41.489C159.341 42.2197 159.615 43.2243 159.249 44.503C158.062 48.339 156.875 51.4443 155.687 53.819C154.5 56.1937 153.404 58.2943 152.399 60.121C151.395 61.8563 150.527 63.7743 149.796 65.875C149.157 67.8843 148.746 70.4873 148.563 73.684C148.563 73.958 149.157 74.5517 150.344 75.465C151.532 76.287 152.125 77.246 152.125 78.342C152.125 79.164 151.669 79.8947 150.755 80.534C150.299 80.8993 149.568 81.082 148.563 81.082ZM167.636 88.343C166.997 88.343 166.266 88.2973 165.444 88.206C164.714 88.1147 163.937 87.9777 163.115 87.795C161.928 87.521 161.334 86.6533 161.334 85.192C161.334 84.37 161.654 83.6393 162.293 83C162.933 82.2693 163.846 81.9953 165.033 82.178C166.038 82.2693 167.636 82.041 169.828 81.493C172.112 80.945 174.623 80.2143 177.363 79.301C181.382 77.8397 184.67 76.287 187.227 74.643C189.785 72.999 191.885 71.081 193.529 68.889C195.265 66.697 196.132 64.5963 196.132 62.587C196.132 61.6737 195.95 60.806 195.584 59.984C195.219 59.0707 194.534 58.203 193.529 57.381C191.977 56.011 190.104 54.7323 187.912 53.545C185.72 52.3577 183.574 51.1247 181.473 49.846C179.373 48.476 177.592 46.969 176.13 45.325C174.76 43.5897 174.075 41.489 174.075 39.023C174.075 36.831 174.852 34.9587 176.404 33.406C177.957 31.762 179.738 30.4377 181.747 29.433C183.848 28.337 185.629 27.5607 187.09 27.104C188.552 26.6473 190.013 26.3277 191.474 26.145C192.936 25.871 194.397 25.734 195.858 25.734C197.594 25.734 199.238 25.9623 200.79 26.419C202.434 26.7843 203.987 27.4693 205.448 28.474C206.27 29.022 206.864 29.6613 207.229 30.392C207.595 31.1227 207.777 31.8533 207.777 32.584C207.777 33.5887 207.458 34.502 206.818 35.324C206.27 36.0547 205.494 36.42 204.489 36.42C203.759 36.42 202.8 36.0547 201.612 35.324H201.749C199.74 33.8627 197.411 33.132 194.762 33.132C193.301 33.132 191.977 33.3147 190.789 33.68C188.871 34.1367 186.999 34.7303 185.172 35.461C183.346 36.1917 182.204 37.3333 181.747 38.886C181.473 40.0733 182.158 41.3977 183.802 42.859C185.538 44.229 187.684 45.6447 190.241 47.106C192.799 48.476 195.173 49.846 197.365 51.216C199.466 52.4033 201.156 54.0017 202.434 56.011C203.713 58.0203 204.352 60.1667 204.352 62.45C204.352 65.2813 203.302 68.0213 201.201 70.67C197.822 74.78 194.306 77.9767 190.652 80.26C187.09 82.5433 183.072 84.4157 178.596 85.877C176.13 86.699 174.075 87.2927 172.431 87.658C170.787 88.1147 169.189 88.343 167.636 88.343ZM212.219 118.209C210.758 118.209 209.342 117.615 207.972 116.428C206.511 115.241 205.917 113.368 206.191 110.811C206.374 108.436 207.013 105.24 208.109 101.221C209.205 97.2937 210.575 92.9097 212.219 88.069C213.863 83.2283 215.69 78.2507 217.699 73.136C219.709 67.93 221.718 62.9067 223.727 58.066C225.737 53.134 227.655 48.7043 229.481 44.777C231.308 40.7583 232.861 37.516 234.139 35.05C234.961 33.5887 236.103 32.858 237.564 32.858C238.478 32.858 239.254 33.1777 239.893 33.817C240.533 34.365 240.852 35.2327 240.852 36.42C240.852 37.1507 240.578 38.338 240.03 39.982C239.482 41.5347 238.797 42.859 237.975 43.955C236.697 45.599 235.327 47.654 233.865 50.12C232.404 52.4947 231.034 55.0063 229.755 57.655C234.505 50.9877 239.482 45.7817 244.688 42.037C249.894 38.2923 255.557 35.5523 261.676 33.817C262.59 33.543 263.457 33.3603 264.279 33.269C265.101 33.1777 265.878 33.132 266.608 33.132C270.353 33.132 273.002 34.4107 274.554 36.968C276.198 39.5253 277.02 42.2653 277.02 45.188C277.02 48.3847 276.335 51.0333 274.965 53.134C272.499 58.1573 269.622 62.313 266.334 65.601C263.046 68.7977 259.484 71.4463 255.648 73.547C251.904 75.5563 247.976 77.4287 243.866 79.164C241.857 80.0773 240.076 80.7167 238.523 81.082C237.062 81.356 235.783 81.493 234.687 81.493C233.043 81.493 231.902 81.1277 231.262 80.397C230.623 79.6663 230.303 78.8443 230.303 77.931C230.303 76.6523 230.669 75.465 231.399 74.369C232.13 73.273 232.815 72.8163 233.454 72.999C234.094 73.0903 234.87 73.2273 235.783 73.41C236.697 73.5927 237.656 73.684 238.66 73.684C241.035 73.684 243.044 73.273 244.688 72.451C247.337 71.081 250.077 69.5283 252.908 67.793C255.831 66.0577 258.662 63.82 261.402 61.08C264.234 58.2487 266.7 54.641 268.8 50.257C269.348 48.7043 269.622 47.1973 269.622 45.736C269.622 44.1833 269.211 42.859 268.389 41.763C267.659 40.667 266.38 40.119 264.553 40.119C261.539 40.119 257.703 41.489 253.045 44.229C248.387 46.8777 243.501 50.6223 238.386 55.463C233.272 60.3037 228.431 65.9207 223.864 72.314C221.855 77.4287 219.983 82.452 218.247 87.384C216.603 92.316 215.279 96.7 214.274 100.536C213.27 104.463 212.676 107.34 212.493 109.167C212.402 110.172 212.95 111.222 214.137 112.318C215.325 113.414 215.918 114.51 215.918 115.606C215.918 116.337 215.462 117.022 214.548 117.661C214.092 118.026 213.315 118.209 212.219 118.209Z" fill="#4EBF59"/>
</svg>
